<?xml version="1.0"?>
<svg
    xmlns="http://www.w3.org/2000/svg"
    fill = "white"
    stroke = "white"
    width="512"
    height="512"
    viewBox="0 0 128 128">
    
    <g><path d="M114.941,0H21.059a9.761,9.761,0,0,0-9.75,9.75v108.5a9.761,9.761,0,0,0,9.75,9.75h93.882a1.749,1.749,0,0,0,1.75-1.75V1.752A1.749,1.749,0,0,0,114.941,0ZM14.809,118.25V9.752a6.257,6.257,0,0,1,6.25-6.25H29.5v121H21.059A6.257,6.257,0,0,1,14.809,118.25Zm98.382,6.25H33V3.5h80.195Z"/><path d="M53.723,70.853a1.75,1.75,0,0,0,0,3.5,10.361,10.361,0,0,0,10.192-8.6h7.429V73.18a10.36,10.36,0,0,0-8.6,10.192,1.75,1.75,0,1,0,3.5,0,6.859,6.859,0,0,1,5.1-6.617v6.617a1.75,1.75,0,1,0,3.5,0V76.755a6.859,6.859,0,0,1,5.1,6.617,1.75,1.75,0,1,0,3.5,0,10.36,10.36,0,0,0-8.6-10.192V65.751h7.429a10.359,10.359,0,0,0,10.192,8.6,1.75,1.75,0,0,0,0-3.5,6.858,6.858,0,0,1-6.617-5.1h6.617a1.75,1.75,0,0,0,0-3.5H85.848a6.858,6.858,0,0,1,6.617-5.1,1.75,1.75,0,0,0,0-3.5,10.359,10.359,0,0,0-10.192,8.6H74.844V54.822a10.361,10.361,0,0,0,8.6-10.192,1.75,1.75,0,1,0-3.5,0,6.857,6.857,0,0,1-5.1,6.616V44.63a1.75,1.75,0,1,0-3.5,0v6.616a6.857,6.857,0,0,1-5.1-6.616,1.75,1.75,0,1,0-3.5,0,10.361,10.361,0,0,0,8.6,10.192v7.429H63.915a10.361,10.361,0,0,0-10.192-8.6,1.75,1.75,0,0,0,0,3.5,6.857,6.857,0,0,1,6.616,5.1H53.723a1.75,1.75,0,1,0,0,3.5h6.616A6.857,6.857,0,0,1,53.723,70.853Z"/><path d="M41.246,104.379h5.621a6.257,6.257,0,0,1,6.25,6.25v5.621a1.749,1.749,0,0,0,1.75,1.75H91.32a1.749,1.749,0,0,0,1.75-1.75v-5.621a6.257,6.257,0,0,1,6.25-6.25h5.621a1.749,1.749,0,0,0,1.75-1.75V25.373a1.749,1.749,0,0,0-1.75-1.75H99.32a6.257,6.257,0,0,1-6.25-6.25V11.752A1.749,1.749,0,0,0,91.32,10H54.867a1.749,1.749,0,0,0-1.75,1.75v5.621a6.257,6.257,0,0,1-6.25,6.25H41.246a1.749,1.749,0,0,0-1.75,1.75v77.256A1.749,1.749,0,0,0,41.246,104.379ZM43,27.123h3.871a9.761,9.761,0,0,0,9.75-9.75V13.5H89.57v3.871a9.761,9.761,0,0,0,9.75,9.75h3.871v73.756H99.32a9.761,9.761,0,0,0-9.75,9.75V114.5H56.617v-3.871a9.761,9.761,0,0,0-9.75-9.75H43Z"/></g></svg>
