<svg
	fill = "white"
	stroke = "white"
	stroke-width = "3px"
	version="1.1"
	xmlns="http://www.w3.org/2000/svg"
	xmlns:xlink="http://www.w3.org/1999/xlink"
	x="0px"
	y="0px"
	viewBox="0 0 379.506 379.506"
	style="enable-background:new 0 0 379.506 379.506;"
	xml:space="preserve"
	>
	
<g>
	<g>
		<path d="M379.326,306.822c-0.172-1.021-0.681-1.955-1.445-2.654l0.12,0.16l-49.76-49.64c-1.245-1.247-3.089-1.681-4.76-1.12
			l-36,12l-50.68-50.6l80-79.56c8.533,5.496,19.743,4.297,26.92-2.88c4-4,8-8.24,12-12.44l6.88-7.2
			c8.105-8.723,7.605-22.365-1.118-30.47c-8.466-7.867-21.629-7.659-29.842,0.47l-4.44,4.56c-63.503-48.931-152.45-47.269-214.08,4
			l-8.48-8.48l12-36c0.783-2.361-0.434-4.919-2.76-5.8L6.362,0.289C3.958-0.599,1.289,0.63,0.402,3.034
			c-0.383,1.037-0.383,2.177,0,3.215l40.76,107.72c0.881,2.326,3.439,3.543,5.8,2.76l36-12l8.4,8.4
			c-51.767,61.718-53.532,151.168-4.24,214.88l-4.92,5.08c-8.218,8.617-7.895,22.264,0.722,30.482
			c3.99,3.805,9.285,5.937,14.798,5.958h0.36c5.727-0.074,11.186-2.436,15.16-6.56l18.8-19.4c6.957-7.234,8.002-18.313,2.52-26.72
			l80.56-80l50.6,50.6l-12,36c-0.561,1.671-0.127,3.515,1.12,4.76l49.76,49.8c1.736,1.885,4.671,2.006,6.556,0.271
			c0.775-0.714,1.284-1.669,1.444-2.711l9.12-52.64l53.8-10.76C378.049,311.743,379.752,309.349,379.326,306.822z M230.242,208.408
			l-86.28-86.16c49.478-38.718,119.763-35.715,165.76,7.08L230.242,208.408z M222.522,61.049
			c37.202,0.007,73.27,12.802,102.16,36.24c1.868,1.534,4.6,1.377,6.28-0.36l7.36-7.6c2.267-2.345,5.379-3.685,8.64-3.72
			c3.272-0.083,6.437,1.174,8.76,3.48c4.87,4.717,4.995,12.488,0.28,17.36l-6.92,7.24c-4,4-8,8.28-12,12.28
			c-4.882,4.653-12.558,4.653-17.44,0c-49.303-49.289-127.716-53.812-182.36-10.52l-17.56-17.56
			C148.682,74.064,185.021,61.041,222.522,61.049z M125.202,337.169v-0.12l-18.76,19.36c-2.267,2.345-5.378,3.685-8.64,3.72
			c-3.272,0.083-6.437-1.174-8.76-3.48c-4.87-4.717-4.995-12.488-0.28-17.36l7.76-8c1.642-1.685,1.762-4.333,0.28-6.16
			c-48.772-59.965-48.387-146.034,0.92-205.56l17.56,17.56c-43.713,54.469-39.564,133.075,9.64,182.64
			C129.796,324.5,129.921,332.283,125.202,337.169z M128.322,309.768c-42.666-46.255-45.297-116.691-6.2-166l86.32,86.48
			L128.322,309.768z M218.322,226.729L87.442,96.009c-1.245-1.247-3.089-1.681-4.76-1.12l-34.44,11.6l-35.52-93.88l93.88,35.56
			l-11.6,34.44c-0.561,1.671-0.127,3.515,1.12,4.76l130.84,130.88l50.76,50.76l-4.28,1.44c-1.377,0.463-2.457,1.543-2.92,2.92
			l-1.44,4.28L218.322,226.729z M316.922,314.249c-1.86,0.379-3.302,1.852-3.64,3.72l-8.44,46.96l-41.44-41.32l15.2-45.12
			l45.12-15.2l41.56,41.48L316.922,314.249z"/>
	</g>
</g>
</svg>
