<?xml version="1.0" encoding="iso-8859-1"?>
<!-- Generator: Adobe Illustrator 19.0.0, SVG Export Plug-In . SVG Version: 6.00 Build 0)  -->
<svg version="1.1" id="Capa_1" xmlns="http://www.w3.org/2000/svg" xmlns:xlink="http://www.w3.org/1999/xlink" x="0px" y="0px"
	 viewBox="0 0 428.16 428.16" style="enable-background:new 0 0 428.16 428.16;" xml:space="preserve">
<g>
	<path style="fill:#FFE4B7;" d="M145.42,89.04h27.48c7.379,0,13.36,5.981,13.36,13.36v27.48c0,7.379-5.981,13.36-13.36,13.36h-27.48
		c-7.379,0-13.36-5.981-13.36-13.36V102.4C132.06,95.021,138.041,89.04,145.42,89.04z"/>
	<path style="fill:#FFE4B7;" d="M145.42,93.04h27.48c5.169,0,9.36,4.191,9.36,9.36v27.48c0,5.169-4.191,9.36-9.36,9.36h-27.48
		c-5.169,0-9.36-4.191-9.36-9.36V102.4C136.06,97.231,140.251,93.04,145.42,93.04z"/>
	<path style="fill:#FFE4B7;" d="M99.58,365.2V62.96h229.04V365.2H99.58z M130.98,339.12c-0.608,0-1.1,0.492-1.1,1.1
		c0,0.607,0.492,1.1,1.1,1.1h166.24c0.608,0,1.1-0.492,1.1-1.1c0-0.608-0.492-1.1-1.1-1.1H130.98z M130.98,304.72
		c-0.608,0-1.1,0.492-1.1,1.1c0,0.608,0.492,1.1,1.1,1.1h166.24c0.608,0,1.1-0.492,1.1-1.1c0-0.607-0.492-1.1-1.1-1.1H130.98z
		 M130.98,270.32c-0.608,0-1.1,0.492-1.1,1.1c0,0.607,0.492,1.1,1.1,1.1h166.24c0.608,0,1.1-0.492,1.1-1.1
		c0-0.608-0.492-1.1-1.1-1.1H130.98z M130.98,235.92c-0.608,0-1.1,0.492-1.1,1.1s0.492,1.1,1.1,1.1h166.24
		c0.608,0,1.1-0.492,1.1-1.1s-0.492-1.1-1.1-1.1H130.98z M130.98,201.52c-0.608,0-1.1,0.492-1.1,1.1c0,0.607,0.492,1.1,1.1,1.1
		h166.24c0.608,0,1.1-0.492,1.1-1.1c0-0.608-0.492-1.1-1.1-1.1H130.98z M130.98,167.12c-0.608,0-1.1,0.492-1.1,1.1
		c0,0.607,0.492,1.1,1.1,1.1h166.24c0.608,0,1.1-0.492,1.1-1.1c0-0.608-0.492-1.1-1.1-1.1H130.98z M145.42,86.84
		c-8.578,0-15.538,6.942-15.56,15.52v27.48c0,8.594,6.966,15.56,15.56,15.56h27.48c8.594,0,15.56-6.966,15.56-15.56V102.4
		c-0.022-8.578-6.982-15.52-15.56-15.52L145.42,86.84z M216.02,132.72c-0.608,0-1.1,0.492-1.1,1.1c0,0.607,0.492,1.1,1.1,1.1h81.2
		c0.608,0,1.1-0.492,1.1-1.1c0-0.608-0.492-1.1-1.1-1.1H216.02z M216.02,98.32c-0.608,0-1.1,0.492-1.1,1.1
		c0,0.607,0.492,1.1,1.1,1.1h81.2c0.608,0,1.1-0.492,1.1-1.1c0-0.608-0.492-1.1-1.1-1.1H216.02z"/>
	<path style="fill:#FFE4B7;" d="M103.58,66.96V361.2h221.04V66.96L103.58,66.96z M125.86,102.4
		c0.022-10.787,8.773-19.52,19.56-19.52h27.48c10.787,0,19.538,8.733,19.56,19.52v27.48c0,10.803-8.757,19.56-19.56,19.56h-27.48
		c-10.803,0-19.56-8.757-19.56-19.56V102.4z M297.22,345.32H130.98c-2.817,0-5.1-2.283-5.1-5.1s2.283-5.1,5.1-5.1h166.24
		c2.817,0,5.1,2.283,5.1,5.1S300.037,345.32,297.22,345.32z M297.22,310.92H130.98c-2.817,0-5.1-2.283-5.1-5.1s2.283-5.1,5.1-5.1
		h166.24c2.817,0,5.1,2.283,5.1,5.1S300.037,310.92,297.22,310.92z M297.22,276.52H130.98c-2.817,0-5.1-2.283-5.1-5.1
		s2.283-5.1,5.1-5.1h166.24c2.817,0,5.1,2.283,5.1,5.1S300.037,276.52,297.22,276.52z M297.22,242.12H130.98
		c-2.817,0-5.1-2.283-5.1-5.1s2.283-5.1,5.1-5.1h166.24c2.817,0,5.1,2.283,5.1,5.1S300.037,242.12,297.22,242.12z M297.22,207.72
		H130.98c-2.817,0-5.1-2.283-5.1-5.1c0-2.817,2.283-5.1,5.1-5.1h166.24c2.817,0,5.1,2.283,5.1,5.1
		C302.32,205.437,300.037,207.72,297.22,207.72z M297.22,173.32H130.98c-2.817,0-5.1-2.283-5.1-5.1c0-2.817,2.283-5.1,5.1-5.1
		h166.24c2.817,0,5.1,2.283,5.1,5.1C302.32,171.037,300.037,173.32,297.22,173.32z M297.22,138.92h-81.2c-2.817,0-5.1-2.283-5.1-5.1
		c0-2.817,2.283-5.1,5.1-5.1h81.2c2.817,0,5.1,2.283,5.1,5.1C302.32,136.637,300.037,138.92,297.22,138.92z M297.22,104.52h-81.2
		c-2.817,0-5.1-2.283-5.1-5.1c0-2.817,2.283-5.1,5.1-5.1h81.2c2.817,0,5.1,2.283,5.1,5.1
		C302.32,102.237,300.037,104.52,297.22,104.52z"/>
</g>
<g>
	<path style="fill:#CE7149;" d="M76.62,367.4h274.96c7.379,0,13.36,5.981,13.36,13.36v27.84c0,7.378-5.981,13.36-13.36,13.36H76.62
		c-7.379,0-13.36-5.982-13.36-13.36v-27.84C63.26,373.381,69.241,367.4,76.62,367.4z"/>
	<path style="fill:#CE7149;" d="M76.62,371.4h274.96c5.169,0,9.36,4.191,9.36,9.36v27.84c0,5.169-4.191,9.36-9.36,9.36H76.62
		c-5.169,0-9.36-4.191-9.36-9.36v-27.84C67.26,375.591,71.451,371.4,76.62,371.4z"/>
	<path style="fill:#CE7149;" d="M76.62,6.2h274.96c7.379,0,13.36,5.981,13.36,13.36V47.4c0,7.379-5.981,13.36-13.36,13.36H76.62
		c-7.379,0-13.36-5.981-13.36-13.36V19.56C63.26,12.181,69.241,6.2,76.62,6.2z"/>
	<path style="fill:#CE7149;" d="M76.62,10.2h274.96c5.169,0,9.36,4.191,9.36,9.36V47.4c0,5.169-4.191,9.36-9.36,9.36H76.62
		c-5.169,0-9.36-4.191-9.36-9.36V19.56C67.26,14.391,71.451,10.2,76.62,10.2z"/>
</g>
<g>
	<path style="fill:#FFE4B7;" d="M42.74,402.84c-4.507,0-8.16-3.653-8.16-8.16s3.653-8.16,8.16-8.16h18.32v16.32H42.74z"/>
	<path style="fill:#FFE4B7;" d="M38.58,394.68c0,2.209,1.791,4,4,4H56.9v-8.2H42.74c-2.207-0.091-4.071,1.624-4.162,3.831
		C38.573,394.434,38.574,394.557,38.58,394.68z"/>
	<path style="fill:#FFE4B7;" d="M367.14,41.68V25.32h18.32c4.507,0,8.16,3.653,8.16,8.16c0,4.507-3.653,8.16-8.16,8.16L367.14,41.68
		z"/>
	<path style="fill:#FFE4B7;" d="M389.62,33.48c0-2.209-1.791-4-4-4H371.3v8.2h14.32c2.209,0.003,4.002-1.786,4.005-3.995
		C389.625,33.617,389.623,33.548,389.62,33.48z"/>
	<path style="fill:#FFE4B7;" d="M367.14,402.84v-16.36h18.32c4.507,0,8.16,3.653,8.16,8.16s-3.653,8.16-8.16,8.16L367.14,402.84z"/>
	<path style="fill:#FFE4B7;" d="M385.46,390.48h-14.32v8.32h14.32c2.298,0,4.16-1.862,4.16-4.16
		C389.62,392.342,387.757,390.48,385.46,390.48z"/>
	<path style="fill:#FFE4B7;" d="M42.74,41.68c-4.507,0-8.16-3.653-8.16-8.16c0-4.507,3.653-8.16,8.16-8.16h18.32v16.32H42.74z"/>
	<path style="fill:#FFE4B7;" d="M38.58,33.48c0,2.209,1.791,4,4,4H56.9v-8.16H42.74c-2.207-0.09-4.07,1.626-4.16,3.833
		C38.576,33.262,38.576,33.371,38.58,33.48z"/>
</g>
<g>
	<path style="fill:#2D2520;" d="M385.46,380.32H371.1c-0.217-10.609-8.869-19.101-19.48-19.12h-16.8V66.96h16.76
		c10.602-0.041,19.242-8.521,19.48-19.12h14.36c7.931,0,14.36-6.429,14.36-14.36s-6.429-14.36-14.36-14.36l0,0h-14.36
		C370.822,8.521,362.182,0.041,351.58,0H76.62C66.018,0.041,57.378,8.521,57.14,19.12h-14.4c-7.931,0-14.36,6.429-14.36,14.36
		s6.429,14.36,14.36,14.36H57.1c0.238,10.599,8.878,19.079,19.48,19.12h16.76V361.2H76.62c-10.611,0.02-19.263,8.511-19.48,19.12
		h-14.4c-7.931,0-14.36,6.429-14.36,14.36s6.429,14.36,14.36,14.36H57.1c0.217,10.609,8.869,19.101,19.48,19.12h275
		c10.611-0.019,19.263-8.511,19.48-19.12h14.36c7.931,0,14.36-6.429,14.36-14.36s-6.429-14.36-14.36-14.36H385.46z M389.46,33.52
		c0,2.209-1.791,4-4,4h-14.32v-8.2h14.32c2.207-0.09,4.07,1.626,4.16,3.833c0.004,0.109,0.004,0.218,0,0.327L389.46,33.52z
		 M38.46,33.52c0-2.209,1.791-4,4-4h14.32v8.16H42.74c-2.207,0.091-4.071-1.624-4.162-3.831c-0.005-0.123-0.004-0.246,0.002-0.369
		L38.46,33.52z M67.14,47.44v-28c0-5.169,4.19-9.36,9.359-9.361c0.04,0,0.081,0,0.121,0.001h274.96c5.169,0,9.36,4.191,9.36,9.36v28
		c0,5.169-4.191,9.36-9.36,9.36H76.62c-5.169,0-9.36-4.191-9.36-9.36l0,0H67.14z M103.46,67h221.16v294.24H103.58L103.46,67z
		 M38.58,394.68c0-2.209,1.791-4,4-4H56.9V399H42.74c-2.207,0.096-4.074-1.616-4.169-3.823
		C38.563,395.011,38.567,394.845,38.58,394.68z M360.94,408.6c0.066,5.169-4.07,9.413-9.239,9.479
		c-0.04,0.001-0.081,0.001-0.121,0.001H76.62c-5.169,0-9.36-4.191-9.36-9.36v-28c0-5.169,4.191-9.36,9.36-9.36h274.96
		c5.169,0,9.36,4.191,9.36,9.36V408.6z M385.46,398.84h-14.32v-8.36h14.32c2.298,0,4.16,1.862,4.16,4.16
		c0,2.297-1.862,4.16-4.16,4.16V398.84z"/>
	<path style="fill:#2D2520;" d="M145.42,149.44h27.48c10.803,0,19.56-8.757,19.56-19.56V102.4
		c-0.022-10.787-8.773-19.52-19.56-19.52h-27.48c-10.787,0-19.538,8.733-19.56,19.52v27.48
		C125.86,140.683,134.617,149.44,145.42,149.44z M136.06,102.4c0-5.169,4.191-9.36,9.36-9.36l0,0h27.48
		c5.107,0.087,9.201,4.252,9.2,9.36v27.48c0,5.169-4.191,9.36-9.36,9.36l0,0h-27.32c-5.169,0-9.36-4.191-9.36-9.36l0,0V102.4z"/>
	<path style="fill:#2D2520;" d="M216.02,104.52h81.2c2.817,0,5.1-2.283,5.1-5.1c0-2.817-2.283-5.1-5.1-5.1h-81.2
		c-2.817,0-5.1,2.283-5.1,5.1C210.92,102.237,213.203,104.52,216.02,104.52L216.02,104.52z"/>
	<path style="fill:#2D2520;" d="M297.22,128.72h-81.2c-2.817,0-5.1,2.283-5.1,5.1c0,2.817,2.283,5.1,5.1,5.1h81.2
		c2.817,0,5.1-2.283,5.1-5.1C302.32,131.003,300.037,128.72,297.22,128.72z"/>
	<path style="fill:#2D2520;" d="M297.22,163.12H130.98c-2.817,0-5.1,2.283-5.1,5.1c0,2.817,2.283,5.1,5.1,5.1h166.24
		c2.817,0,5.1-2.283,5.1-5.1C302.32,165.403,300.037,163.12,297.22,163.12z"/>
	<path style="fill:#2D2520;" d="M297.22,197.52H130.98c-2.817,0-5.1,2.283-5.1,5.1c0,2.817,2.283,5.1,5.1,5.1h166.24
		c2.817,0,5.1-2.283,5.1-5.1C302.32,199.803,300.037,197.52,297.22,197.52z"/>
	<path style="fill:#2D2520;" d="M297.22,231.92H130.98c-2.817,0-5.1,2.283-5.1,5.1s2.283,5.1,5.1,5.1h166.24
		c2.817,0,5.1-2.283,5.1-5.1S300.037,231.92,297.22,231.92z"/>
	<path style="fill:#2D2520;" d="M297.22,266.32H130.98c-2.817,0-5.1,2.283-5.1,5.1s2.283,5.1,5.1,5.1h166.24
		c2.817,0,5.1-2.283,5.1-5.1S300.037,266.32,297.22,266.32z"/>
	<path style="fill:#2D2520;" d="M297.22,300.72H130.98c-2.817,0-5.1,2.283-5.1,5.1s2.283,5.1,5.1,5.1h166.24
		c2.817,0,5.1-2.283,5.1-5.1S300.037,300.72,297.22,300.72z"/>
	<path style="fill:#2D2520;" d="M297.22,335.12H130.98c-2.817,0-5.1,2.283-5.1,5.1s2.283,5.1,5.1,5.1h166.24
		c2.817,0,5.1-2.283,5.1-5.1S300.037,335.12,297.22,335.12z"/>
</g>
<g>
</g>
<g>
</g>
<g>
</g>
<g>
</g>
<g>
</g>
<g>
</g>
<g>
</g>
<g>
</g>
<g>
</g>
<g>
</g>
<g>
</g>
<g>
</g>
<g>
</g>
<g>
</g>
<g>
</g>
</svg>
