<svg
    fill = "white"
    stroke = "white"
    height="512"
    width="512"
    viewBox="0 0 128 128"
    xmlns="http://www.w3.org/2000/svg"><g><path d="m99.571 35.868a1.75 1.75 0 0 0 3.1-1.618 43.667 43.667 0 0 0 -9.52-12.288 1.75 1.75 0 0 0 -2.343 2.6 40.189 40.189 0 0 1 8.763 11.306z"/><path d="m103.808 119.75h-4.391v-10.25a1.751 1.751 0 0 0 -1.75-1.75h-7.767l-3.7-9.057a49.58 49.58 0 1 0 -44.386 0l-3.7 9.057h-7.781a1.751 1.751 0 0 0 -1.75 1.75v10.25h-4.391a1.75 1.75 0 0 0 0 3.5h79.616a1.75 1.75 0 0 0 0-3.5zm-85.888-65.42a46.08 46.08 0 1 1 65.523 41.8h-38.886a46.236 46.236 0 0 1 -26.637-41.8zm27.285 45.3h37.595l3.319 8.12h-44.233zm-13.122 20.12v-8.5h63.834v8.5z"/><path d="m42.667 39.583h-2.25v-2.25a1.75 1.75 0 0 0 -3.5 0v2.25h-2.25a1.75 1.75 0 0 0 0 3.5h2.25v2.25a1.75 1.75 0 0 0 3.5 0v-2.25h2.25a1.75 1.75 0 0 0 0-3.5z"/><path d="m113.5 89.75h-2.25v-2.25a1.75 1.75 0 0 0 -3.5 0v2.25h-2.25a1.75 1.75 0 0 0 0 3.5h2.25v2.25a1.75 1.75 0 0 0 3.5 0v-2.25h2.25a1.75 1.75 0 0 0 0-3.5z"/><path d="m121.5 10.833h-2.25v-2.25a1.75 1.75 0 1 0 -3.5 0v2.25h-2.25a1.75 1.75 0 0 0 0 3.5h2.25v2.25a1.75 1.75 0 0 0 3.5 0v-2.25h2.25a1.75 1.75 0 0 0 0-3.5z"/><path d="m14.5 21.942a1.75 1.75 0 0 0 0-3.5h-2.25v-2.25a1.75 1.75 0 0 0 -3.5 0v2.25h-2.25a1.75 1.75 0 0 0 0 3.5h2.25v2.25a1.75 1.75 0 0 0 3.5 0v-2.25z"/><path d="m84.118 71.129a5.75 5.75 0 1 0 -5.75-5.75 5.757 5.757 0 0 0 5.75 5.75zm0-8a2.25 2.25 0 1 1 -2.25 2.25 2.252 2.252 0 0 1 2.25-2.25z"/><path d="m24.25 93.875a5.75 5.75 0 1 0 -5.75 5.75 5.757 5.757 0 0 0 5.75-5.75zm-5.75 2.25a2.25 2.25 0 1 1 2.25-2.25 2.252 2.252 0 0 1 -2.25 2.25z"/></g></svg>