<?xml version="1.0" encoding="iso-8859-1"?>
<svg version="1.1"
	id="Capa_1"
	xmlns="http://www.w3.org/2000/svg"
	xmlns:xlink="http://www.w3.org/1999/xlink" x="0px" y="0px"
	viewBox="0 0 258 258"
	style="enable-background:new 0 0 258 258;"
	xml:space="preserve">
	
<polygon style="fill:#883400;"
		 points="5.831,99.6 252.231,4.4 157.831,253.2 132.231,125.6 "/>
<path style="fill:#d58400;"
	  stroke = "#c56900"
	  d="M1.031,100c0,2,1.6,4,4,4.4l123.2,25.6l24.8,124c0.4,2,2.4,3.6,4.4,4h0.4c2,0,4-1.2,4.4-3.2
	l94.4-248.4l0,0l0,0c0-0.4,0.4-1.2,0.4-1.6V4.4c0-0.4,0-0.8-0.4-1.2V2.8c-0.4-0.4-0.4-1.2-0.8-1.6l0,0l0,0l0,0
	c-0.4-0.4-0.8-0.8-1.6-0.8h-0.4c-0.4,0-0.8-0.4-1.2-0.4h-0.4c-0.4,0-1.2,0-1.6,0.4l0,0l0,0L4.231,94.8
	C2.231,95.6,0.631,97.6,1.031,100z M159.431,235.6l-22-108.4l102-103.2L159.431,235.6z M232.631,17.2l-102,103.2L23.031,98
	L232.631,17.2z"/>
<g>
</g>
<g>
</g>
<g>
</g>
<g>
</g>
<g>
</g>
<g>
</g>
<g>
</g>
<g>
</g>
<g>
</g>
<g>
</g>
<g>
</g>
<g>
</g>
<g>
</g>
<g>
</g>
<g>
</g>
</svg>
