<svg height="512" viewBox="0 0 128 128" width="512" xmlns="http://www.w3.org/2000/svg"><g><path d="m122.737 106.743-4.195-4.2a1.8 1.8 0 0 0 -2.475 0l-1.5 1.5-14.893-14.884 6.572-6.572a1.749 1.749 0 0 0 0-2.475 10.755 10.755 0 0 0 -14.641-.507l-12.036-14.277 34.289-28.91a1.755 1.755 0 0 0 .545-.824l8.77-28.58a1.751 1.751 0 0 0 -2.186-2.187l-28.58 8.773a1.746 1.746 0 0 0 -.825.545l-27.582 32.713-27.582-32.716a1.746 1.746 0 0 0 -.825-.545l-28.58-8.77a1.751 1.751 0 0 0 -2.186 2.187l8.77 28.58a1.755 1.755 0 0 0 .545.824l34.294 28.91-12.036 14.277a10.755 10.755 0 0 0 -14.641.507 1.749 1.749 0 0 0 0 2.475l6.572 6.572-14.891 14.89-1.5-1.5a1.8 1.8 0 0 0 -2.475 0l-4.195 4.2a1.749 1.749 0 0 0 0 2.475l13.519 13.519a1.749 1.749 0 0 0 2.475 0l4.2-4.195a1.752 1.752 0 0 0 0-2.475l-1.5-1.5 14.891-14.89 6.573 6.572a1.748 1.748 0 0 0 2.474 0 10.755 10.755 0 0 0 .498-14.65l15.6-13.156 15.605 13.156a10.755 10.755 0 0 0 .507 14.641 1.748 1.748 0 0 0 2.474 0l6.573-6.572 14.891 14.89-1.5 1.5a1.752 1.752 0 0 0 0 2.475l4.2 4.195a1.749 1.749 0 0 0 2.475 0l13.519-13.519a1.749 1.749 0 0 0 -.007-2.472zm-28.811-89.952 24.933-7.65-7.651 24.933-33.895 28.578-4.341-5.152 32.955-32.956a1.75 1.75 0 0 0 -2.474-2.475l-32.745 32.748-4.421-5.244zm-84.785-7.65 24.933 7.65 41.666 49.425c.009.01.014.022.022.032s.018.015.026.024l13.312 15.787-7.04 7.041-65.268-55.026zm10.879 109.884-11.045-11.045 1.721-1.721 11.044 11.046zm1.455-6.935-5.565-5.566 14.89-14.89 5.566 5.566zm25.025-9.707-20.884-20.883a7.26 7.26 0 0 1 8.866 1.088l10.932 10.931a7.264 7.264 0 0 1 1.086 8.864zm-.56-13.283-7.04-7.04 12.211-14.476 3.706 3.124-3.944 3.944a1.75 1.75 0 1 0 2.474 2.475l4.153-4.155 3.782 3.188zm35.56 13.283a7.264 7.264 0 0 1 1.086-8.864l10.932-10.932a7.26 7.26 0 0 1 8.866-1.088zm10.134-5.183 5.566-5.566 14.891 14.89-5.565 5.566zm16.346 21.826-1.72-1.72 11.04-11.047 1.721 1.721z"/><path d="m77.125 74.649-52.581-52.58a1.75 1.75 0 0 0 -2.474 2.475l52.58 52.58a1.75 1.75 0 0 0 2.475-2.475z"/></g></svg>